<mxfile host="app.diagrams.net" modified="2024-05-17T07:16:45.376Z" agent="Mozilla/5.0 (Macintosh; Intel Mac OS X 10_15_7) AppleWebKit/537.36 (KHTML, like Gecko) Chrome/122.0.0.0 Safari/537.36" version="24.4.3" etag="k8vUWgG7y72YgW7XTdlD" type="github">
  <diagram name="第 1 页" id="A5O0y_TBBYgCSaFGsOQp">
    <mxGraphModel>
      <root>
        <mxCell id="0" />
        <mxCell id="1" parent="0" />
      </root>
    </mxGraphModel>
  </diagram>
</mxfile>
